<mxfile host="app.diagrams.net" modified="2021-04-29T05:44:34.944Z" agent="5.0 (Windows NT 10.0; Win64; x64) AppleWebKit/537.36 (KHTML, like Gecko) Chrome/86.0.4240.198 Whale/2.9.116.15 Safari/537.36" etag="K4RT3NZFaU55wXq59-9T" version="14.6.0" type="github">
  <diagram id="Dlge__o8ok7Pt5bM-hsp" name="Page-1">
    <mxGraphModel dx="988" dy="544" grid="1" gridSize="10" guides="1" tooltips="1" connect="1" arrows="1" fold="1" page="1" pageScale="1" pageWidth="827" pageHeight="1169" math="0" shadow="0">
      <root>
        <mxCell id="0" />
        <mxCell id="1" parent="0" />
        <mxCell id="_oeBNE_1EEiK_c1OVAmI-1" value="&lt;table border=&quot;1&quot; width=&quot;100%&quot; cellpadding=&quot;4&quot; style=&quot;width: 100% ; height: 100% ; border-collapse: collapse&quot;&gt;&lt;tbody&gt;&lt;tr&gt;&lt;th align=&quot;center&quot;&gt;&lt;b&gt;&amp;lt;&amp;lt;Model&amp;gt;&amp;gt;&lt;br&gt;신고관리_detail&lt;br&gt;&lt;/b&gt;&lt;/th&gt;&lt;/tr&gt;&lt;tr&gt;&lt;td align=&quot;center&quot;&gt;REPORT_SEQ : NUMBER&lt;br&gt;REPORT_BOARD :&amp;nbsp; VARCHAR2&lt;br&gt;REPORT_TYPE : VARCHAR2&lt;br&gt;CRIMINAL_ID : VARCHAR2&lt;br&gt;REPORT_BOARD : VARCHAR2&lt;br&gt;REPORT_TYPE : VARCHAR2&lt;br&gt;CRIMINAL_ID VARCHAR2(50),&lt;br&gt;REPORT_REASON : VARCHAR2&lt;br&gt;REPORT_DATE :&amp;nbsp; DATE&lt;br&gt;&lt;/td&gt;&lt;/tr&gt;&lt;tr&gt;&lt;td align=&quot;center&quot;&gt;report_list()&lt;br&gt;report_detail()&lt;br&gt;&lt;/td&gt;&lt;/tr&gt;&lt;/tbody&gt;&lt;/table&gt;" style="text;html=1;strokeColor=none;fillColor=none;overflow=fill;" parent="1" vertex="1">
          <mxGeometry x="90" y="60" width="200" height="250" as="geometry" />
        </mxCell>
        <mxCell id="_oeBNE_1EEiK_c1OVAmI-3" value="&lt;table border=&quot;1&quot; width=&quot;100%&quot; cellpadding=&quot;4&quot; style=&quot;width: 100% ; height: 100% ; border-collapse: collapse&quot;&gt;&lt;tbody&gt;&lt;tr&gt;&lt;th align=&quot;center&quot;&gt;&amp;lt;&amp;lt;Controller&amp;gt;&amp;gt;&lt;/th&gt;&lt;/tr&gt;&lt;tr&gt;&lt;td align=&quot;center&quot;&gt;Section 1.1&lt;br&gt;Section 1.2&lt;br&gt;Section 1.3&lt;/td&gt;&lt;/tr&gt;&lt;tr&gt;&lt;td align=&quot;center&quot;&gt;Section 2.1&lt;br&gt;Section 2.2&lt;br&gt;Section 2.3&lt;/td&gt;&lt;/tr&gt;&lt;/tbody&gt;&lt;/table&gt;" style="text;html=1;strokeColor=none;fillColor=none;overflow=fill;" parent="1" vertex="1">
          <mxGeometry x="410" y="50" width="160" height="140" as="geometry" />
        </mxCell>
        <mxCell id="_oeBNE_1EEiK_c1OVAmI-4" value="&lt;table border=&quot;1&quot; width=&quot;100%&quot; cellpadding=&quot;4&quot; style=&quot;width: 100% ; height: 100% ; border-collapse: collapse&quot;&gt;&lt;tbody&gt;&lt;tr&gt;&lt;th align=&quot;center&quot;&gt;&amp;lt;&amp;lt;Service&amp;gt;&amp;gt;&lt;/th&gt;&lt;/tr&gt;&lt;tr&gt;&lt;td align=&quot;center&quot;&gt;Section 1.1&lt;br&gt;Section 1.2&lt;br&gt;Section 1.3&lt;/td&gt;&lt;/tr&gt;&lt;tr&gt;&lt;td align=&quot;center&quot;&gt;Section 2.1&lt;br&gt;Section 2.2&lt;br&gt;Section 2.3&lt;/td&gt;&lt;/tr&gt;&lt;/tbody&gt;&lt;/table&gt;" style="text;html=1;strokeColor=none;fillColor=none;overflow=fill;" parent="1" vertex="1">
          <mxGeometry x="410" y="290" width="160" height="140" as="geometry" />
        </mxCell>
        <mxCell id="_oeBNE_1EEiK_c1OVAmI-5" value="&lt;table border=&quot;1&quot; width=&quot;100%&quot; cellpadding=&quot;4&quot; style=&quot;width: 100% ; height: 100% ; border-collapse: collapse&quot;&gt;&lt;tbody&gt;&lt;tr&gt;&lt;th align=&quot;center&quot;&gt;&amp;lt;&amp;lt;ServiceImpl&amp;gt;&amp;gt;&lt;/th&gt;&lt;/tr&gt;&lt;tr&gt;&lt;td align=&quot;center&quot;&gt;Section 1.1&lt;br&gt;Section 1.2&lt;br&gt;Section 1.3&lt;/td&gt;&lt;/tr&gt;&lt;tr&gt;&lt;td align=&quot;center&quot;&gt;Section 2.1&lt;br&gt;Section 2.2&lt;br&gt;Section 2.3&lt;/td&gt;&lt;/tr&gt;&lt;/tbody&gt;&lt;/table&gt;" style="text;html=1;strokeColor=none;fillColor=none;overflow=fill;" parent="1" vertex="1">
          <mxGeometry x="410" y="500" width="160" height="140" as="geometry" />
        </mxCell>
        <mxCell id="_oeBNE_1EEiK_c1OVAmI-6" value="&lt;table border=&quot;1&quot; width=&quot;100%&quot; cellpadding=&quot;4&quot; style=&quot;width: 100% ; height: 100% ; border-collapse: collapse&quot;&gt;&lt;tbody&gt;&lt;tr&gt;&lt;th align=&quot;center&quot;&gt;&amp;lt;&amp;lt;Dao&amp;gt;&amp;gt;&lt;/th&gt;&lt;/tr&gt;&lt;tr&gt;&lt;td align=&quot;center&quot;&gt;Section 1.1&lt;br&gt;Section 1.2&lt;br&gt;Section 1.3&lt;/td&gt;&lt;/tr&gt;&lt;tr&gt;&lt;td align=&quot;center&quot;&gt;Section 2.1&lt;br&gt;Section 2.2&lt;br&gt;Section 2.3&lt;/td&gt;&lt;/tr&gt;&lt;/tbody&gt;&lt;/table&gt;" style="text;html=1;strokeColor=none;fillColor=none;overflow=fill;" parent="1" vertex="1">
          <mxGeometry x="630" y="503" width="160" height="140" as="geometry" />
        </mxCell>
        <mxCell id="_oeBNE_1EEiK_c1OVAmI-7" value="&lt;table border=&quot;1&quot; width=&quot;100%&quot; cellpadding=&quot;4&quot; style=&quot;width: 100% ; height: 100% ; border-collapse: collapse&quot;&gt;&lt;tbody&gt;&lt;tr&gt;&lt;th align=&quot;center&quot;&gt;&amp;lt;&amp;lt;Dto&amp;gt;&amp;gt;&lt;/th&gt;&lt;/tr&gt;&lt;tr&gt;&lt;td align=&quot;center&quot;&gt;Section 1.1&lt;br&gt;Section 1.2&lt;br&gt;Section 1.3&lt;/td&gt;&lt;/tr&gt;&lt;tr&gt;&lt;td align=&quot;center&quot;&gt;Section 2.1&lt;br&gt;Section 2.2&lt;br&gt;Section 2.3&lt;/td&gt;&lt;/tr&gt;&lt;/tbody&gt;&lt;/table&gt;" style="text;html=1;strokeColor=none;fillColor=none;overflow=fill;" parent="1" vertex="1">
          <mxGeometry x="630" y="290" width="160" height="140" as="geometry" />
        </mxCell>
        <mxCell id="_oeBNE_1EEiK_c1OVAmI-8" value="&lt;table border=&quot;1&quot; width=&quot;100%&quot; cellpadding=&quot;4&quot; style=&quot;width: 100% ; height: 100% ; border-collapse: collapse&quot;&gt;&lt;tbody&gt;&lt;tr&gt;&lt;th align=&quot;center&quot;&gt;&lt;b&gt;&amp;lt;&amp;lt;Model&amp;gt;&amp;gt;&lt;br&gt;신고관리_list&lt;br&gt;&lt;/b&gt;&lt;/th&gt;&lt;/tr&gt;&lt;tr&gt;&lt;td align=&quot;center&quot;&gt;REPORT_SEQ : NUMBER&lt;br&gt;REPORT_BOARD :&amp;nbsp; VARCHAR2&lt;br&gt;REPORT_TYPE : VARCHAR2&lt;br&gt;CRIMINAL_ID : VARCHAR2&lt;br&gt;REPORT_BOARD : VARCHAR2&lt;br&gt;REPORT_TYPE : VARCHAR2&lt;br&gt;CRIMINAL_ID VARCHAR2(50),&lt;br&gt;REPORT_REASON : VARCHAR2&lt;br&gt;REPORT_DATE :&amp;nbsp; DATE&lt;br&gt;&lt;/td&gt;&lt;/tr&gt;&lt;tr&gt;&lt;td align=&quot;center&quot;&gt;report_list()&lt;br&gt;&lt;/td&gt;&lt;/tr&gt;&lt;/tbody&gt;&lt;/table&gt;" style="text;html=1;strokeColor=none;fillColor=none;overflow=fill;" parent="1" vertex="1">
          <mxGeometry x="100" y="380" width="200" height="250" as="geometry" />
        </mxCell>
      </root>
    </mxGraphModel>
  </diagram>
</mxfile>
